<svg id="visual" viewBox="0 0 960 540" width="960" height="540" xmlns="http://www.w3.org/2000/svg" xmlns:xlink="http://www.w3.org/1999/xlink" version="1.1"><rect x="0" y="0" width="960" height="540" fill="#f5f5f5"></rect><path d="M0 352L80 343.7C160 335.3 320 318.7 480 306.3C640 294 800 286 880 282L960 278L960 541L880 541C800 541 640 541 480 541C320 541 160 541 80 541L0 541Z" fill="#4facf7"></path><path d="M0 225L80 261.2C160 297.3 320 369.7 480 409.8C640 450 800 458 880 462L960 466L960 541L880 541C800 541 640 541 480 541C320 541 160 541 80 541L0 541Z" fill="#479de2"></path><path d="M0 98L80 134C160 170 320 242 480 277.5C640 313 800 312 880 311.5L960 311L960 541L880 541C800 541 640 541 480 541C320 541 160 541 80 541L0 541Z" fill="#3f8dcd"></path><path d="M0 456L80 462.2C160 468.3 320 480.7 480 489.7C640 498.7 800 504.3 880 507.2L960 510L960 541L880 541C800 541 640 541 480 541C320 541 160 541 80 541L0 541Z" fill="#377fb9"></path><path d="M0 195L80 246.3C160 297.7 320 400.3 480 428C640 455.7 800 408.3 880 384.7L960 361L960 541L880 541C800 541 640 541 480 541C320 541 160 541 80 541L0 541Z" fill="#3070a5"></path><path d="M0 438L80 454.3C160 470.7 320 503.3 480 508C640 512.7 800 489.3 880 477.7L960 466L960 541L880 541C800 541 640 541 480 541C320 541 160 541 80 541L0 541Z" fill="#286292"></path><path d="M0 267L80 289.8C160 312.7 320 358.3 480 371.7C640 385 800 366 880 356.5L960 347L960 541L880 541C800 541 640 541 480 541C320 541 160 541 80 541L0 541Z" fill="#20547f"></path><path d="M0 482L80 461.5C160 441 320 400 480 406.8C640 413.7 800 468.3 880 495.7L960 523L960 541L880 541C800 541 640 541 480 541C320 541 160 541 80 541L0 541Z" fill="#19476c"></path><path d="M0 535L80 502.2C160 469.3 320 403.7 480 375.3C640 347 800 356 880 360.5L960 365L960 541L880 541C800 541 640 541 480 541C320 541 160 541 80 541L0 541Z" fill="#113a5a"></path><path d="M0 406L80 416C160 426 320 446 480 449.5C640 453 800 440 880 433.5L960 427L960 541L880 541C800 541 640 541 480 541C320 541 160 541 80 541L0 541Z" fill="#0a2d49"></path><path d="M0 495L80 486.5C160 478 320 461 480 454.2C640 447.3 800 450.7 880 452.3L960 454L960 541L880 541C800 541 640 541 480 541C320 541 160 541 80 541L0 541Z" fill="#042138"></path><path d="M0 523L80 512C160 501 320 479 480 476.3C640 473.7 800 490.3 880 498.7L960 507L960 541L880 541C800 541 640 541 480 541C320 541 160 541 80 541L0 541Z" fill="#001628"></path></svg>